<svg width="140" height="24" viewBox="0 0 140 24" fill="none" xmlns="http://www.w3.org/2000/svg">
  <path d="M0 4.8C0 2.15 2.15 0 4.8 0H19.2C21.85 0 24 2.15 24 4.8V19.2C24 21.85 21.85 24 19.2 24H4.8C2.15 24 0 21.85 0 19.2V4.8Z" fill="currentColor"/>
  <path d="M6 6H10C11.1 6 12 6.9 12 8C12 8.6 11.7 9.1 11.3 9.4C11.7 9.7 12 10.2 12 10.8C12 11.9 11.1 12.8 10 12.8H6V6ZM8 8.4V9.6H10C10.3 9.6 10.6 9.3 10.6 9C10.6 8.7 10.3 8.4 10 8.4H8ZM8 10.8V12H10C10.3 12 10.6 11.7 10.6 11.4C10.6 11.1 10.3 10.8 10 10.8H8Z" fill="white"/>
  <text x="32" y="16" font-family="Inter, system-ui, sans-serif" font-size="16" font-weight="600" fill="currentColor">rightCode</text>
</svg> 